<svg width="16" height="16" viewBox="0 0 16 16" fill="none" xmlns="http://www.w3.org/2000/svg">
<g clip-path="url(#clip0_1_17)">
<path d="M8 4.66666V14" stroke="#6A7282" stroke-width="1.33333" stroke-linecap="round" stroke-linejoin="round"/>
<path d="M1.99999 12C1.82318 12 1.65361 11.9298 1.52859 11.8047C1.40357 11.6797 1.33333 11.5101 1.33333 11.3333V2.66667C1.33333 2.48986 1.40357 2.32029 1.52859 2.19526C1.65361 2.07024 1.82318 2 1.99999 2H5.33333C6.04057 2 6.71885 2.28095 7.21895 2.78105C7.71904 3.28115 8 3.95942 8 4.66667C8 3.95942 8.28095 3.28115 8.78104 2.78105C9.28114 2.28095 9.95942 2 10.6667 2H14C14.1768 2 14.3464 2.07024 14.4714 2.19526C14.5964 2.32029 14.6667 2.48986 14.6667 2.66667V11.3333C14.6667 11.5101 14.5964 11.6797 14.4714 11.8047C14.3464 11.9298 14.1768 12 14 12H10C9.46956 12 8.96085 12.2107 8.58578 12.5858C8.21071 12.9609 8 13.4696 8 14C8 13.4696 7.78928 12.9609 7.41421 12.5858C7.03914 12.2107 6.53043 12 6 12H1.99999Z" stroke="#6A7282" stroke-width="1.33333" stroke-linecap="round" stroke-linejoin="round"/>
</g>
<defs>
<clipPath id="clip0_1_17">
<rect width="16" height="16" fill="white"/>
</clipPath>
</defs>
</svg>
