<svg width="28" height="28" viewBox="0 0 28 28" fill="none" xmlns="http://www.w3.org/2000/svg">
<path d="M16.6666 8C16.313 8 15.9738 8.14048 15.7238 8.39052C15.4737 8.64057 15.3333 8.97971 15.3333 9.33333V13.3333C15.3333 13.687 15.4737 14.0261 15.7238 14.2761C15.9738 14.5262 16.313 14.6667 16.6666 14.6667C16.8434 14.6667 17.013 14.7369 17.138 14.8619C17.263 14.987 17.3333 15.1565 17.3333 15.3333V16C17.3333 16.3536 17.1928 16.6928 16.9427 16.9428C16.6927 17.1929 16.3535 17.3333 15.9999 17.3333C15.8231 17.3333 15.6535 17.4036 15.5285 17.5286C15.4035 17.6536 15.3333 17.8232 15.3333 18V19.3333C15.3333 19.5101 15.4035 19.6797 15.5285 19.8047C15.6535 19.9298 15.8231 20 15.9999 20C17.0608 20 18.0782 19.5786 18.8283 18.8284C19.5785 18.0783 19.9999 17.0609 19.9999 16V9.33333C19.9999 8.97971 19.8594 8.64057 19.6094 8.39052C19.3593 8.14048 19.0202 8 18.6666 8H16.6666Z" stroke="#4A5565" stroke-width="1.33333" stroke-linecap="round" stroke-linejoin="round"/>
<path d="M9.33333 8C8.97971 8 8.64057 8.14048 8.39052 8.39052C8.14048 8.64057 8 8.97971 8 9.33333V13.3333C8 13.687 8.14048 14.0261 8.39052 14.2761C8.64057 14.5262 8.97971 14.6667 9.33333 14.6667C9.51014 14.6667 9.67971 14.7369 9.80474 14.8619C9.92976 14.987 10 15.1565 10 15.3333V16C10 16.3536 9.85952 16.6928 9.60948 16.9428C9.35943 17.1929 9.02029 17.3333 8.66667 17.3333C8.48986 17.3333 8.32029 17.4036 8.19526 17.5286C8.07024 17.6536 8 17.8232 8 18V19.3333C8 19.5101 8.07024 19.6797 8.19526 19.8047C8.32029 19.9298 8.48986 20 8.66667 20C9.72753 20 10.7449 19.5786 11.4951 18.8284C12.2452 18.0783 12.6667 17.0609 12.6667 16V9.33333C12.6667 8.97971 12.5262 8.64057 12.2761 8.39052C12.0261 8.14048 11.687 8 11.3333 8H9.33333Z" stroke="#4A5565" stroke-width="1.33333" stroke-linecap="round" stroke-linejoin="round"/>
</svg>
