<svg width="28" height="28" viewBox="0 0 28 28" fill="none" xmlns="http://www.w3.org/2000/svg">
<g clip-path="url(#clip0_1_482)">
<path d="M12.6667 14.6667C12.953 15.0494 13.3183 15.3661 13.7378 15.5953C14.1572 15.8245 14.6211 15.9607 15.0978 15.9949C15.5746 16.029 16.0531 15.9602 16.501 15.7932C16.9488 15.6261 17.3555 15.3647 17.6934 15.0267L19.6934 13.0267C20.3006 12.398 20.6366 11.556 20.629 10.682C20.6214 9.808 20.2708 8.97196 19.6528 8.35394C19.0348 7.73591 18.1987 7.38535 17.3248 7.37775C16.4508 7.37016 15.6088 7.70614 14.9801 8.31333L13.8334 9.45333" stroke="#4A5565" stroke-width="1.33333" stroke-linecap="round" stroke-linejoin="round"/>
<path d="M15.3332 13.3333C15.0469 12.9506 14.6817 12.6339 14.2622 12.4047C13.8427 12.1755 13.3789 12.0392 12.9021 12.0051C12.4254 11.971 11.9468 12.0397 11.499 12.2068C11.0512 12.3739 10.6445 12.6353 10.3066 12.9733L8.30656 14.9733C7.69936 15.602 7.36338 16.444 7.37098 17.318C7.37857 18.192 7.72913 19.028 8.34716 19.646C8.96519 20.2641 9.80123 20.6146 10.6752 20.6222C11.5492 20.6298 12.3912 20.2938 13.0199 19.6867L14.1599 18.5467" stroke="#4A5565" stroke-width="1.33333" stroke-linecap="round" stroke-linejoin="round"/>
</g>
<defs>
<clipPath id="clip0_1_482">
<rect width="16" height="16" fill="white" transform="translate(6 6)"/>
</clipPath>
</defs>
</svg>
