<svg width="28" height="28" viewBox="0 0 28 28" fill="none" xmlns="http://www.w3.org/2000/svg">
<path d="M10 14H16C16.7072 14 17.3855 14.2809 17.8856 14.781C18.3857 15.2811 18.6667 15.9594 18.6667 16.6667C18.6667 17.3739 18.3857 18.0522 17.8856 18.5523C17.3855 19.0524 16.7072 19.3333 16 19.3333H10.6667C10.4899 19.3333 10.3203 19.2631 10.1953 19.1381C10.0702 19.013 10 18.8435 10 18.6667V9.33332C10 9.15651 10.0702 8.98694 10.1953 8.86192C10.3203 8.73689 10.4899 8.66666 10.6667 8.66666H15.3333C16.0406 8.66666 16.7189 8.94761 17.219 9.4477C17.719 9.9478 18 10.6261 18 11.3333C18 12.0406 17.719 12.7188 17.219 13.2189C16.7189 13.719 16.0406 14 15.3333 14" stroke="#4A5565" stroke-width="1.33333" stroke-linecap="round" stroke-linejoin="round"/>
</svg>
