<svg width="36" height="36" viewBox="0 0 36 36" fill="none" xmlns="http://www.w3.org/2000/svg">
<path d="M23 14.6667C24.3807 14.6667 25.5 13.5474 25.5 12.1667C25.5 10.786 24.3807 9.66667 23 9.66667C21.6193 9.66667 20.5 10.786 20.5 12.1667C20.5 13.5474 21.6193 14.6667 23 14.6667Z" stroke="#99A1AF" stroke-width="1.66667" stroke-linecap="round" stroke-linejoin="round"/>
<path d="M13 20.5C14.3807 20.5 15.5 19.3807 15.5 18C15.5 16.6193 14.3807 15.5 13 15.5C11.6193 15.5 10.5 16.6193 10.5 18C10.5 19.3807 11.6193 20.5 13 20.5Z" stroke="#99A1AF" stroke-width="1.66667" stroke-linecap="round" stroke-linejoin="round"/>
<path d="M23 26.3333C24.3807 26.3333 25.5 25.214 25.5 23.8333C25.5 22.4526 24.3807 21.3333 23 21.3333C21.6193 21.3333 20.5 22.4526 20.5 23.8333C20.5 25.214 21.6193 26.3333 23 26.3333Z" stroke="#99A1AF" stroke-width="1.66667" stroke-linecap="round" stroke-linejoin="round"/>
<path d="M15.1584 19.2583L20.8501 22.575" stroke="#99A1AF" stroke-width="1.66667" stroke-linecap="round" stroke-linejoin="round"/>
<path d="M20.8418 13.425L15.1584 16.7417" stroke="#99A1AF" stroke-width="1.66667" stroke-linecap="round" stroke-linejoin="round"/>
</svg>
