<svg width="16" height="16" viewBox="0 0 16 16" fill="none" xmlns="http://www.w3.org/2000/svg">
<g clip-path="url(#clip0_1_50)">
<path d="M4.66667 6.66669V14.6667" stroke="#6A7282" stroke-width="1.33333" stroke-linecap="round" stroke-linejoin="round"/>
<path d="M10 3.91998L9.33333 6.66665H13.22C13.427 6.66665 13.6311 6.71484 13.8163 6.80741C14.0014 6.89998 14.1625 7.03439 14.2867 7.19998C14.4109 7.36557 14.4948 7.55781 14.5318 7.76147C14.5689 7.96512 14.558 8.1746 14.5 8.37331L12.9467 13.7066C12.8659 13.9836 12.6975 14.2269 12.4667 14.4C12.2359 14.5731 11.9552 14.6666 11.6667 14.6666H2.66667C2.31304 14.6666 1.9739 14.5262 1.72386 14.2761C1.47381 14.0261 1.33333 13.6869 1.33333 13.3333V7.99998C1.33333 7.64636 1.47381 7.30722 1.72386 7.05717C1.9739 6.80712 2.31304 6.66665 2.66667 6.66665H4.50667C4.75472 6.66651 4.99782 6.59719 5.20864 6.46646C5.41945 6.33573 5.58961 6.14879 5.7 5.92665L8 1.33331C8.31438 1.33721 8.62382 1.41209 8.9052 1.55238C9.18658 1.69266 9.43262 1.89472 9.62494 2.14345C9.81725 2.39218 9.95088 2.68115 10.0158 2.98878C10.0808 3.29641 10.0754 3.61474 10 3.91998Z" stroke="#6A7282" stroke-width="1.33333" stroke-linecap="round" stroke-linejoin="round"/>
</g>
<defs>
<clipPath id="clip0_1_50">
<rect width="16" height="16" fill="white"/>
</clipPath>
</defs>
</svg>
