<svg width="1200" height="760" viewBox="0 0 1200 760" fill="none" xmlns="http://www.w3.org/2000/svg">
  <rect width="1200" height="760" rx="36" fill="#F8FAFC"/>
  <path d="M262 396L438 208L662 286L854 164L964 330L746 520L488 560L262 396Z" stroke="#D3DDEB" stroke-width="10" stroke-linecap="round" stroke-linejoin="round"/>
  <path d="M438 208L488 560" stroke="#E1E8F2" stroke-width="6" stroke-linecap="round"/>
  <path d="M662 286L746 520" stroke="#E1E8F2" stroke-width="6" stroke-linecap="round"/>
  <circle cx="262" cy="396" r="68" fill="#0F172A"/>
  <circle cx="438" cy="208" r="58" fill="#2563EB"/>
  <circle cx="662" cy="286" r="64" fill="#14B8A6"/>
  <circle cx="854" cy="164" r="52" fill="#F59E0B"/>
  <circle cx="964" cy="330" r="46" fill="#EF4444"/>
  <circle cx="746" cy="520" r="60" fill="#8B5CF6"/>
  <circle cx="488" cy="560" r="74" fill="#38BDF8"/>
  <circle cx="262" cy="396" r="26" fill="white" fill-opacity="0.26"/>
  <circle cx="438" cy="208" r="22" fill="white" fill-opacity="0.26"/>
  <circle cx="662" cy="286" r="24" fill="white" fill-opacity="0.24"/>
  <circle cx="854" cy="164" r="18" fill="white" fill-opacity="0.24"/>
  <circle cx="964" cy="330" r="16" fill="white" fill-opacity="0.24"/>
  <circle cx="746" cy="520" r="20" fill="white" fill-opacity="0.24"/>
  <circle cx="488" cy="560" r="28" fill="white" fill-opacity="0.24"/>
</svg>
